<?xml version="1.0" encoding="UTF-8"?>
<svg id="_イヤー_1" data-name="レイヤー 1" xmlns="http://www.w3.org/2000/svg" viewBox="0 0 720.95 79.76">
  <defs>
    <style>
      .cls-1 {
        fill: #231815;
      }
    </style>
  </defs>
  <rect class="cls-1" x="568.6" y="11.88" width="16.15" height="67.88"/>
  <path class="cls-1" d="M420.14,11.88h-39.76V79.76h39.76c8.92,0,16.15-7.24,16.15-16.16V28.03c0-8.92-7.23-16.15-16.15-16.15Zm0,44.22c0,4.14-3.36,7.5-7.51,7.5h-16.1V28.03h16.1c4.15,0,7.51,3.36,7.51,7.5v20.57Z"/>
  <polygon class="cls-1" points="720.95 11.88 720.95 79.76 700.93 79.76 678.69 34.78 678.69 79.76 662.54 79.76 662.54 11.88 685.38 11.88 704.8 51.16 704.8 11.88 720.95 11.88"/>
  <polygon class="cls-1" points="464.38 28.04 464.38 37.75 490.8 37.75 490.8 53.9 464.38 53.9 464.38 63.61 492.75 63.61 492.75 79.76 448.23 79.76 448.23 11.88 492.75 11.88 492.75 28.04 464.38 28.04"/>
  <polygon class="cls-1" points="58.41 11.88 58.41 79.76 38.39 79.76 16.15 34.78 16.15 79.76 0 79.76 0 11.88 22.84 11.88 42.26 51.16 42.26 11.88 58.41 11.88"/>
  <polygon class="cls-1" points="185.82 79.76 167.32 79.76 152.74 53.69 145.13 63.52 145.13 79.76 128.98 79.76 128.98 11.88 145.13 11.88 145.13 37.12 164.67 11.88 185.1 11.88 163.48 39.81 185.82 79.76"/>
  <path class="cls-1" d="M340.57,11.88V63.61c0,8.92-7.23,16.15-16.15,16.15h-23.61c-8.92,0-16.15-7.23-16.15-16.15V11.88h16.15V56.11c0,4.12,3.33,7.47,7.46,7.5h8.69c4.12-.02,7.46-3.37,7.46-7.5V11.88h16.15Z"/>
  <polygon class="cls-1" points="87.58 28.04 87.58 37.75 114 37.75 114 53.9 87.58 53.9 87.58 63.61 115.95 63.61 115.95 79.76 71.43 79.76 71.43 11.88 115.95 11.88 115.95 28.04 87.58 28.04"/>
  <path class="cls-1" d="M244.35,23.85h-23.61c-8.92,0-16.15,7.23-16.15,16.16v23.59c0,8.93,7.23,16.16,16.15,16.16h23.61c8.92,0,16.15-7.23,16.15-16.16v-23.59c0-8.93-7.23-16.16-16.15-16.16Zm0,32.25c0,4.13-3.33,7.47-7.46,7.5h-8.7c-4.12-.03-7.45-3.37-7.45-7.5v-8.59c0-4.13,3.33-7.47,7.46-7.5h8.7c4.12,.03,7.45,3.37,7.45,7.5v8.59Z"/>
  <path class="cls-1" d="M518.99,32.89c0,2.68,2.17,4.86,4.85,4.86h18.75c8.92,0,16.15,7.23,16.15,16.15v9.71c0,8.92-7.23,16.15-16.15,16.15h-39.76v-16.15h34.91c2.68,0,4.85-2.17,4.85-4.86s-2.17-4.85-4.85-4.85h-18.75c-8.92,0-16.16-7.23-16.16-16.15v-9.71c0-8.92,7.24-16.15,16.16-16.15h39.75V28.04h-34.9c-2.68,0-4.85,2.17-4.85,4.85Z"/>
  <path class="cls-1" d="M610.78,35.53v20.57c0,2.06,.83,3.92,2.18,5.28,.16,.17,.34,.34,.53,.49,1.29,1.07,2.94,1.72,4.74,1.73h8.7c4.12-.03,7.45-3.38,7.45-7.5v-2.21h-11.8v-16.15h27.96v25.86c0,4.46-1.81,8.5-4.73,11.42-2.93,2.92-6.97,4.73-11.43,4.73h-23.6c-4.46,0-8.5-1.81-11.43-4.73-2.92-2.92-4.73-6.96-4.73-11.42V28.03c0-8.92,7.24-16.15,16.16-16.15h39.76V28.03h-32.26c-4.14,0-7.5,3.36-7.5,7.5Z"/>
  <path class="cls-1" d="M645.81,75.02c-2.92,2.93-6.97,4.74-11.43,4.74h-23.6c-4.46,0-8.51-1.81-11.43-4.74,2.93,2.92,6.97,4.73,11.43,4.73h23.6c4.46,0,8.5-1.81,11.43-4.73Z"/>
  <g>
    <g>
      <circle class="cls-1" cx="219.47" cy="9.24" r="9.24"/>
      <circle class="cls-1" cx="245.62" cy="9.24" r="9.24"/>
    </g>
    <g>
      <circle class="cls-1" cx="196.87" cy="20.87" r="9.24"/>
      <circle class="cls-1" cx="268.21" cy="20.87" r="9.24"/>
    </g>
  </g>
</svg>